<svg xmlns="http://www.w3.org/2000/svg" viewBox="0 0 64 64" fill="none">
  <rect width="64" height="64" rx="14" fill="#050505"/>
  <rect x="8" y="8" width="48" height="48" rx="12" stroke="#1f2937" stroke-width="2"/>
  <path d="M20 40V24h5.2c4.6 0 7.8 3 7.8 8s-3.2 8-7.8 8H20Zm4-3.3h1.1c2.6 0 4.2-1.6 4.2-4.7s-1.6-4.7-4.2-4.7H24v9.4Z" fill="#f8fafc"/>
  <path d="M38 24h6.8c3.3 0 5.2 1.7 5.2 4.4 0 1.8-.9 3-2.3 3.7 1.8.6 2.9 2.1 2.9 4.1 0 2.8-2.2 4.8-5.8 4.8H38V24Zm4 3.2v3.4h2.3c1.2 0 1.9-.6 1.9-1.7 0-1.1-.7-1.7-1.9-1.7H42Zm0 6.3v3.5h2.7c1.3 0 2-.7 2-1.8s-.8-1.7-2.1-1.7H42Z" fill="#f8fafc"/>
</svg>
