<svg width="1200" height="900" viewBox="0 0 1200 900" fill="none" xmlns="http://www.w3.org/2000/svg">
<rect width="1200" height="900" rx="56" fill="#0A1220"/>
<rect x="78" y="82" width="1044" height="736" rx="42" fill="#101B2F"/>
<rect x="138" y="152" width="422" height="536" rx="28" fill="#F4F7FB"/>
<rect x="188" y="224" width="322" height="20" rx="10" fill="#C8D5E8"/>
<rect x="188" y="274" width="268" height="20" rx="10" fill="#C8D5E8"/>
<rect x="188" y="358" width="322" height="18" rx="9" fill="#E0E7F2"/>
<rect x="188" y="408" width="322" height="18" rx="9" fill="#E0E7F2"/>
<rect x="188" y="458" width="252" height="18" rx="9" fill="#E0E7F2"/>
<circle cx="486" cy="556" r="38" fill="#62F3C8"/>
<path d="M470 556L482 568L506 542" stroke="#08111F" stroke-width="8" stroke-linecap="round" stroke-linejoin="round"/>
<rect x="648" y="152" width="414" height="536" rx="28" fill="#0B1524" stroke="#29476F" stroke-width="4"/>
<path d="M712 604L784 482L848 518L926 392L998 434" stroke="#5CD5FF" stroke-width="12" stroke-linecap="round" stroke-linejoin="round"/>
<rect x="712" y="234" width="136" height="84" rx="18" fill="#14355F"/>
<rect x="878" y="234" width="136" height="84" rx="18" fill="#152A46"/>
<rect x="712" y="352" width="302" height="84" rx="18" fill="#152A46"/>
</svg>
