<svg width="1200" height="900" viewBox="0 0 1200 900" fill="none" xmlns="http://www.w3.org/2000/svg">
<rect width="1200" height="900" rx="56" fill="#121116"/>
<rect x="86" y="88" width="1028" height="724" rx="40" fill="#1A1823"/>
<rect x="152" y="214" width="184" height="244" rx="28" fill="#202F4D"/>
<rect x="196" y="250" width="96" height="132" rx="16" fill="#5CD5FF"/>
<rect x="450" y="162" width="302" height="268" rx="34" fill="#0F1626" stroke="#7D8BFF" stroke-width="4"/>
<path d="M508 356L566 300L620 318L688 236" stroke="#7D8BFF" stroke-width="12" stroke-linecap="round" stroke-linejoin="round"/>
<rect x="844" y="514" width="202" height="150" rx="24" fill="#0F1626" stroke="#62F3C8" stroke-width="4"/>
<path d="M336 336H450" stroke="#62F3C8" stroke-width="10" stroke-linecap="round"/>
<path d="M752 296H830C868 296 898 326 898 364V514" stroke="#62F3C8" stroke-width="10" stroke-linecap="round" stroke-linejoin="round"/>
<circle cx="450" cy="336" r="14" fill="#62F3C8"/>
<circle cx="898" cy="514" r="14" fill="#62F3C8"/>
<path d="M894 562H998" stroke="#62F3C8" stroke-width="10" stroke-linecap="round"/>
<path d="M894 610H964" stroke="#5CD5FF" stroke-width="10" stroke-linecap="round"/>
<rect x="170" y="722" width="860" height="22" rx="11" fill="#2A2641"/>
</svg>
